<mxfile host="app.diagrams.net" modified="2023-03-12T07:16:03.638Z" agent="5.0 (Windows NT 10.0; Win64; x64) AppleWebKit/537.36 (KHTML, like Gecko) Chrome/96.0.4664.45 Safari/537.36" etag="HuTGdDyl-zRd-T4yeiyJ" version="21.0.6" type="github">
  <diagram name="第 1 页" id="ho7z0ixgOczp1uImjl3U">
    <mxGraphModel dx="592" dy="551" grid="1" gridSize="10" guides="1" tooltips="1" connect="1" arrows="1" fold="1" page="1" pageScale="1" pageWidth="827" pageHeight="1169" math="0" shadow="0">
      <root>
        <mxCell id="0" />
        <mxCell id="1" parent="0" />
        <mxCell id="cZyGyjD_of-olF-0V0Y2-1" value="患者数据采集" style="rounded=0;whiteSpace=wrap;html=1;" vertex="1" parent="1">
          <mxGeometry x="240" y="280" width="80" height="30" as="geometry" />
        </mxCell>
        <mxCell id="cZyGyjD_of-olF-0V0Y2-3" value="患者复诊信息" style="rounded=0;whiteSpace=wrap;html=1;" vertex="1" parent="1">
          <mxGeometry x="310" y="170" width="90" height="40" as="geometry" />
        </mxCell>
        <mxCell id="cZyGyjD_of-olF-0V0Y2-4" value="患者基本信息" style="rounded=0;whiteSpace=wrap;html=1;" vertex="1" parent="1">
          <mxGeometry x="170" y="170" width="80" height="40" as="geometry" />
        </mxCell>
        <mxCell id="cZyGyjD_of-olF-0V0Y2-6" value="项目审核" style="rounded=0;whiteSpace=wrap;html=1;" vertex="1" parent="1">
          <mxGeometry x="60" y="150" width="80" height="40" as="geometry" />
        </mxCell>
        <mxCell id="cZyGyjD_of-olF-0V0Y2-7" value="科研项目创建" style="rounded=0;whiteSpace=wrap;html=1;" vertex="1" parent="1">
          <mxGeometry x="60" y="80" width="80" height="40" as="geometry" />
        </mxCell>
        <mxCell id="cZyGyjD_of-olF-0V0Y2-8" value="分配相关给科室" style="rounded=0;whiteSpace=wrap;html=1;" vertex="1" parent="1">
          <mxGeometry x="60" y="220" width="80" height="30" as="geometry" />
        </mxCell>
      </root>
    </mxGraphModel>
  </diagram>
</mxfile>
